<svg id="레이어_2" data-name="레이어 2" xmlns="http://www.w3.org/2000/svg" viewBox="0 0 32 32"><defs><style>.cls-1{fill:#432;stroke:#432;stroke-miterlimit:10;stroke-width:0.56px;}</style></defs><path class="cls-1" d="M19.11,16l.19-.64a1.22,1.22,0,0,0-.05-.6,1.85,1.85,0,0,0-1-1c-.5-.19-.64-.12-.78-.05l-.57.29L25.43,3.74h.06a2.44,2.44,0,0,1,1.39.58,2.24,2.24,0,0,1,.67,1.18v.06l0,.05Zm-.67-2.41a2.09,2.09,0,0,1,1.06,1.09,1.51,1.51,0,0,1,.07.33l7.7-9.48a1.91,1.91,0,0,0-.57-1A2.22,2.22,0,0,0,25.54,4l-7.78,9.36a1.68,1.68,0,0,1,.58.14Z"/><path class="cls-1" d="M27.07,4.74a1.5,1.5,0,0,1-.32-.19,1.47,1.47,0,0,1-.54-1,1.28,1.28,0,0,1,.28-1,1.45,1.45,0,0,1,2.26,1.82A1.39,1.39,0,0,1,27.07,4.74Zm1-2.31a1.14,1.14,0,0,0-1.37.29h0a1.09,1.09,0,0,0-.23.84,1.21,1.21,0,0,0,.45.79,1.17,1.17,0,0,0,1.64-.13,1.16,1.16,0,0,0-.23-1.63A1.4,1.4,0,0,0,28.06,2.43Z"/><path class="cls-1" d="M8.19,27.89a5.07,5.07,0,0,1-1.28-.84A4.1,4.1,0,0,1,5.66,25a5.25,5.25,0,0,1,.22-3.09A6,6,0,0,1,7.64,19.3c2.26-1.89,7-4.4,9.08-5.47l.79-.42c.25-.15.79.07,1.2.33a1.67,1.67,0,0,1,.93,1.45v0l0,0s-1.13,2-2.23,4.53l-.32.74a28.77,28.77,0,0,1-2.94,5.69c-1.35,1.81-2.82,2.52-4.49,2.16A6.67,6.67,0,0,1,8.19,27.89Zm10-14.12a1,1,0,0,0-.57-.14l-.8.43c-1.85,1-6.79,3.57-9,5.44A5.84,5.84,0,0,0,6.12,22a5.07,5.07,0,0,0-.2,2.94,3.86,3.86,0,0,0,1.16,2A5.5,5.5,0,0,0,9.69,28.1c1.56.34,2.94-.34,4.23-2.06a28.59,28.59,0,0,0,2.91-5.63l.32-.75c1-2.4,2.1-4.29,2.23-4.52s0-.67-.82-1.18A2.45,2.45,0,0,0,18.21,13.77Z"/><path class="cls-1" d="M7.19,27.17a4.23,4.23,0,0,1-.48-1.78,4.86,4.86,0,0,1,1.68-3.85c2.77-2.65,9.84-7.85,9.91-7.9l.16.21c-.07.06-7.13,5.24-9.89,7.88A4.59,4.59,0,0,0,7,25.36,4.32,4.32,0,0,0,7.42,27Z"/><path class="cls-1" d="M7.29,27.28l0-.14c.31-1,2.32-3.56,6-7.57,2.71-3,5.37-5.7,5.4-5.72l.19.18c-.11.11-10.18,10.42-11.26,13a4.47,4.47,0,0,0,1.53-.14,6.48,6.48,0,0,0,3.46-2.35C14.83,21.82,19,14.24,19,14.16l.24.13c-.05.08-4.18,7.68-6.39,10.45a6.71,6.71,0,0,1-3.62,2.44,4.76,4.76,0,0,1-1.79.13Z"/></svg>