<svg id="레이어_2" data-name="레이어 2" xmlns="http://www.w3.org/2000/svg" viewBox="0 0 2066.65 765.35"><defs><style>.cls-1{fill:#9f5e4d;}</style></defs><path class="cls-1" d="M260.25,215.47q11,8,9.84,18.64a47.13,47.13,0,0,1-6.94,20c-2.32,3.56-4.73,7.32-7.24,11.32a127.5,127.5,0,0,0-7.23,13.32q30.09,11.32,59.9,26t47.18,32q9.83,9.33,10.41,18c.38,5.77-.19,10.22-1.73,13.32q-2.91,5.34-10.13,4a55.46,55.46,0,0,1-14.18-4.66q-22-11.31-51.8-26.3t-57.6-26.31q-9.25,20-17.07,41.29a365.77,365.77,0,0,0-12.44,40.62,87.12,87.12,0,0,1-4.34,12.65,27.77,27.77,0,0,1-6.66,9.66,16.51,16.51,0,0,1-9,4.33q-4.94.66-11.29-4.67-6.37-4.65-7.23-15.64t.29-17.65a330.1,330.1,0,0,1,28.65-87.57,534.4,534.4,0,0,1,47.75-78.24,15.68,15.68,0,0,1,10.42-6.32Q256.2,212.14,260.25,215.47Zm143.91,231a21.54,21.54,0,0,1-3.28,13.83q-4,6.63-15.53,10Q325.49,486.89,273.1,507T166.38,551q-16.59,7.59-30.32,4.65t-18.78-13.32q-4.12-9,5.13-18.76a77.45,77.45,0,0,1,22.77-16.25q39.88-18.76,96.91-39.74t126.73-34.14a52.55,52.55,0,0,1,10.27,0,63.39,63.39,0,0,1,11.28,2.09,34.14,34.14,0,0,1,9.52,4.1A9,9,0,0,1,404.16,446.51Z"/><path class="cls-1" d="M547.92,403.25A71.88,71.88,0,0,1,534,431.88a93.79,93.79,0,0,1-23.44,21.64,63.67,63.67,0,0,1-27.2,10,36.41,36.41,0,0,1-25.76-6.32q-12.74-8.65-15.63-30.63a113.87,113.87,0,0,1,2.61-33A186.08,186.08,0,0,1,455,361a160.86,160.86,0,0,1,16.2-29.29,96.74,96.74,0,0,1,21.13-22.31,35,35,0,0,1,16.5-6q8.39-.64,14.76,6a14.71,14.71,0,0,1,3.18,11.32A24.44,24.44,0,0,1,521.87,332a66.64,66.64,0,0,1,16.78,18.64,82.13,82.13,0,0,1,8.4,19.65,62.64,62.64,0,0,1,2.31,18.31A98.28,98.28,0,0,1,547.92,403.25ZM480.2,427.89q3.46,0,9-3a66.68,66.68,0,0,0,10.7-7.32,56.17,56.17,0,0,0,9.56-10.33,30.32,30.32,0,0,0,5.49-12q2.9-13.32-1.44-22.31A72.13,72.13,0,0,0,501,355.3Q478.46,387.27,480.2,427.89ZM661.25,239.26q1.74,38,3.78,71.1t4.78,63.95q2.76,30.82,6.41,62t8,65.24q1.93,12.59-.67,22.08t-8.21,12.82a10.76,10.76,0,0,1-8.4.14,17.91,17.91,0,0,1-7-5.54,45.76,45.76,0,0,1-5.46-8.63,35.77,35.77,0,0,1-3.17-9.15A842.27,842.27,0,0,1,628.5,372q-5.14-69.89-4.36-132.69.38-12.71,3.08-20.73t10.79-8.5q8.09-.5,15.54,7.64T661.25,239.26Z"/><path class="cls-1" d="M865,426.75c2.22-.35,4.7-.61,7.41-.79a37.68,37.68,0,0,1,7.66.26,11.11,11.11,0,0,1,5.74,2.37,6.2,6.2,0,0,1,2.15,5q-1,7.88-7.65,13.92a44.22,44.22,0,0,1-17.23,9.19q-10.53,3.15-24.16,7.62t-28.23,9.19L781.54,483q-14.61,4.74-26.56,9.46a31.77,31.77,0,0,1-17.46,2.36q-8.87-1.31-10.77-8.66-1.43-4.2,3.35-11.56t20.1-14.71q9.56-4.2,26.31-9.72t34-10.5q17.24-5,32.54-8.67T865,426.75ZM817.18,310.66A21.35,21.35,0,0,1,828,320.9a45.27,45.27,0,0,1,4.54,15.23,67.15,67.15,0,0,1,0,16,51.09,51.09,0,0,1-2.87,12.6,72.52,72.52,0,0,1-22.25,30.73q-15.55,12.88-34.68,12.87-11,0-18.9-5a39.67,39.67,0,0,1-12.68-12.61,47,47,0,0,1-6.46-17.07,50.13,50.13,0,0,1,.24-18.91A73.89,73.89,0,0,1,749.48,323a203.51,203.51,0,0,1,21.77-23.37q7.65-6.83,12.68-6.05a11.34,11.34,0,0,1,7.89,5,18.32,18.32,0,0,1,3.35,13.66,77.32,77.32,0,0,1,10.77-2.62A20.29,20.29,0,0,1,817.18,310.66Zm-44.73,37.56q-6,10.77-3.59,24.42,10.51-.51,19.85-8.14a59.47,59.47,0,0,0,14.6-17.07,34.39,34.39,0,0,0,4.78-13.14q1-6.81-5.74-7.87a29.12,29.12,0,0,0-14.83,3.15l-1,.52A69.72,69.72,0,0,0,772.45,348.22Zm160,123.7q0,5.79-3.83,8.67a9.28,9.28,0,0,1-8.13,1.84,15.77,15.77,0,0,1-7.66-4.47,28.24,28.24,0,0,1-5.5-8.14A53,53,0,0,1,904,460.1a37.72,37.72,0,0,1-1.2-8.66q-1.43-37.83-.23-77.22t4.06-74.59a13.69,13.69,0,0,1,6.94-10.77c4-2.28,7.73-2.71,11.24-1.32a25.31,25.31,0,0,1,8.86,6.83q4,4.72,3.58,12.08-3.82,39.93-4.54,82.48T932.49,471.92Z"/><path class="cls-1" d="M1184.43,229q-.77,40.79,2.78,85.75a774,774,0,0,0,12.87,91.55c.48,2.48,1,5.81,1.58,10a70.09,70.09,0,0,1,.58,12.2,28.93,28.93,0,0,1-2.22,10.45,8.38,8.38,0,0,1-6.28,5.32q-5.92,1.55-10.78-3.24a45,45,0,0,1-8.47-11.82,106.72,106.72,0,0,1-6.15-14.43,78.93,78.93,0,0,1-3.29-11.76A773.57,773.57,0,0,1,1152,313.36q-3.77-44.33-3.26-90.12a47.58,47.58,0,0,1,3.44-13.34,13.07,13.07,0,0,1,9.7-8q7-1,11.51,1.33a16.13,16.13,0,0,1,6.85,6.56,28.37,28.37,0,0,1,3.19,9.57A96.91,96.91,0,0,1,1184.43,229Zm82.8,383.18a29,29,0,0,1-20.62-6.36,24.59,24.59,0,0,1-5.27-5.87,11.55,11.55,0,0,1-2-5,258.62,258.62,0,0,1-8.84-50.32q-2-25.64-1.52-46.26-19.6,7.33-37.43,14.32t-33.21,13.12q-14,5.58-27.31,2.55t-17.24-10.2q-3.15-6.21,3.38-11.2t18.38-10.44q7.65-3.79,26.18-11.08t42.37-15.28q23.84-8,49.86-15.16a438.65,438.65,0,0,1,49.36-10.72q9.9-1.45,17.56,2.1t11.41,7.78q4.56,5.66-2,9.9t-18.48,8.25q-22.56,5.51-44.29,12.44a25.32,25.32,0,0,1,6.23,11q-.27,9.33,0,22.06t.93,26.68l1.33,27.64,1.21,24.94a20.58,20.58,0,0,1-2,10.39Q1272.9,612,1267.23,612.22Zm-11.54-366.06a52.4,52.4,0,0,1,1.44-16.55,34.21,34.21,0,0,1,5.06-11.06,22,22,0,0,1,6.64-6.24,13.82,13.82,0,0,1,5.72-2.08q6.24-.3,9,6.77t3.35,18.38q1,20,1.12,41.65t-.65,42.26q-.8,20.64-2.81,39a217.11,217.11,0,0,1-5.82,32.46q-3.72,15.63-13.63,23.58a25.57,25.57,0,0,1-22.11,5.44,23.24,23.24,0,0,1-12.86-6.84,52.1,52.1,0,0,1-9.61-13.44,71,71,0,0,1-5.94-16.45,56.08,56.08,0,0,1-1.46-16.41,66.7,66.7,0,0,1,10.94-33q9.59-14.37,32.34-25.25.26-13.4-.06-29.09T1255.69,246.16Zm-20.28,126.62a30.59,30.59,0,0,0,2.24,9.42c1.36,3.53,3.24,5.42,5.64,5.64,3,.21,5.26-2.48,6.78-8q3.69-16.12,5.23-39.9a47.8,47.8,0,0,0-6.5,4.44,40.81,40.81,0,0,0-6.61,6.75,33.39,33.39,0,0,0-5.13,9.52A31.15,31.15,0,0,0,1235.41,372.78Z"/><path class="cls-1" d="M1453.86,355a144.18,144.18,0,0,1-27.75,23.23,130.74,130.74,0,0,1-30.82,15.13,37.3,37.3,0,0,1-10.2,2,16.7,16.7,0,0,1-16.1-9q-2.92-5-3.79-13.71-3.37-42.06,2.3-72.72a10.73,10.73,0,0,0,.53-2.86,8.7,8.7,0,0,1,1-3.39l-10.85,2.33c-3.1.66-5.39,1.21-6.86,1.62q-5.31,1.29-10.14-5.95t-5.12-13.4a15,15,0,0,1,2.28-8.35c1.66-2.82,5-4.7,10-5.63q13.28-3.21,33.28-6a265.1,265.1,0,0,1,38.37-2.62,27.82,27.82,0,0,1,13.62,4q6.44,3.82,7.59,8.9.58,3.07-4.07,8.44a20.94,20.94,0,0,1-12.65,6.79q-6.21,1.34-16,2.83t-20.41,3.56q4.83,7.5,4.29,14.73-.1,16.49.82,30.85t2.21,22.55c3.5-1.53,7.37-3.27,11.61-5.19s8.31-3.83,12.25-5.74,7.65-3.8,11.14-5.69,6.25-3.39,8.28-4.52a72.32,72.32,0,0,1,10.53-4.37q4.86-1.51,7.71,1.94t2.23,9.16A20.29,20.29,0,0,1,1453.86,355Zm65.77,212.58q-6.27.3-10-7.5a39.11,39.11,0,0,1-4.08-15q-.21-13.37-1.6-37.77t-3.69-53.11q-16.77,4.94-32.2,9.79T1439,473.65q-6.6,2.39-14.34-.34t-10.47-12.88a12,12,0,0,1,1.79-9.36,20.17,20.17,0,0,1,9-7.64,266.15,266.15,0,0,1,30.06-12.27q18.71-6.56,40.12-12.75t43.55-11.12a362.25,362.25,0,0,1,40.39-6.84q13.78-1.69,19.14,2.42a17.48,17.48,0,0,1,6.59,11.27,14,14,0,0,1-2.38,10.93,15.12,15.12,0,0,1-9.75,6.65q-14.2,2.75-30.36,6.1t-32.95,8.29q2,14.33,2.78,29.73t1.22,29.8q.46,14.4.35,25.73t-.3,17a26.64,26.64,0,0,1-4.28,13.34Q1525.43,567.3,1519.63,567.59ZM1449,273.89q-2.64-8.1.72-12.91a44.42,44.42,0,0,1,6.35-7.51q3.84-3.79,14.16-7.9a192.16,192.16,0,0,1,22.48-7.26q12.15-3.17,23.93-5t18.07-1.13a35.32,35.32,0,0,1,9.52,2.63q4.13,1.86,4.44,8.54a12.06,12.06,0,0,1-3.58,9.18,22.3,22.3,0,0,1-10.46,5.91q-6.18,1.84-14.11,4.29t-16.3,5.42a354.1,354.1,0,0,0-3.48,39.05q-.79,20.88-1.4,35.85a306.64,306.64,0,0,0,36.39-15.66q17.91-9.11,31.48-15.43,8.74-4,16-3.34t8.21,3.21q4.93,9.54-8.38,21-9.46,8.18-21.14,16.47t-23.21,15.28q-11.52,7-22,12.13t-17.14,6.5q-12,2.64-20.34-4.17a28,28,0,0,1-10.25-17.53q-3.14-18.37-.42-41.17t5.33-42.48a4.43,4.43,0,0,1-2.21.62q-8.76,4-15.13,1.76C1452.25,278.71,1449.77,276.61,1449,273.89Z"/><path class="cls-1" d="M1649.08,421.79a16.52,16.52,0,0,1-9.06-2.4q-4.61-2.59-6.44-12.82-3-24.57-5.78-54.81a503.23,503.23,0,0,1-2-60.15,16.44,16.44,0,0,1,3.86-7.91,12,12,0,0,1,9-4,10.19,10.19,0,0,1,8.95,4.46,20.44,20.44,0,0,1,4.25,9.32l.2,4.11a8.72,8.72,0,0,1,2.15-1.91,8.25,8.25,0,0,0,2.14-1.9,121.34,121.34,0,0,1,23.72-14,66.64,66.64,0,0,1,27.21-6.47q13.44.39,21.16,7.22t3.52,22a325.66,325.66,0,0,0-11.57,38.41q-5.22,21.61-9.14,42.4,4.32-3.28,9.48-7.66t10.08-9q4.92-4.61,9.43-8.69l7.5-6.8q5.16-4.37,8.09-4c2,.25,3.25.87,3.9,1.87q2.34,2.46,2.69,9.39a25.83,25.83,0,0,1-2.94,13.28q-7,12.18-21.35,26a148.7,148.7,0,0,1-31.76,23.42,71.92,71.92,0,0,1-7.68,3.2,15.43,15.43,0,0,1-7.79.89,9.94,9.94,0,0,1-6.23-3.81q-2.61-3.23-3-10.42a167.22,167.22,0,0,1,.82-24.75q1.37-13.45,3.82-27.48t6.06-27.32q3.6-13.31,7.06-25.32a56.57,56.57,0,0,0-16,5.93q-8.51,4.53-16.8,9.05-6.1,3.38-13-.4,1.94,21.53,3.62,42.3t3.51,40.25Q1661.59,421.19,1649.08,421.79ZM1839.21,540.3q-3.18,8.4-9.08,11.25t-10.94.53a12.65,12.65,0,0,1-7.22-10.47,35.21,35.21,0,0,1,.72-12.9,290.34,290.34,0,0,0,6.32-35.84q1.86-17.08,3.25-34.65a58.7,58.7,0,0,0-24.63,8.91q-11.3,7.25-20.89,12.34a20.63,20.63,0,0,1-12.44,1.89c-4.5-.64-7.6-2.81-9.26-6.51a14.17,14.17,0,0,1-.54-11c1.3-4,3.09-6.93,5.4-8.76q3.87-3.27,10.58-8t14.77-9.21a119.41,119.41,0,0,1,16.86-7.76,59,59,0,0,1,17.72-3.69,22.43,22.43,0,0,1,9.5,2.11,30.85,30.85,0,0,1,10.2,7.24,38.67,38.67,0,0,1,7.76,12.49,41.33,41.33,0,0,1,2.63,17.38q-1.22,21.18-3.46,39.56A212.56,212.56,0,0,1,1839.21,540.3Zm-8.34-144.8q.27,5.65-3.16,8.64a8.36,8.36,0,0,1-7.51,2.17,14.56,14.56,0,0,1-7.35-4,27.46,27.46,0,0,1-5.52-7.72,53.53,53.53,0,0,1-3.59-9.35,38.38,38.38,0,0,1-1.52-8.42q-3.06-35.39-4.24-69.05t-.51-66.15q.35-11.32,6.44-15c4.06-2.43,7.76-3,11.1-1.83q4.56,1.85,8.42,7.58t3.56,18.11q-.73,21.66-.57,43.79a262.28,262.28,0,0,1,34.64-5.79,186,186,0,0,1,36.68-.23,14.89,14.89,0,0,1,8.46,3.71,11.59,11.59,0,0,1,3.65,6c.38,1.71-.27,3.71-1.95,6a15.24,15.24,0,0,1-7.35,5.25,250.15,250.15,0,0,1-36,9.72q-19.29,3.76-38,6.21.42,18,1.48,35.2T1830.87,395.5Z"/></svg>