<svg id="레이어_2" data-name="레이어 2" xmlns="http://www.w3.org/2000/svg" viewBox="0 0 32 32"><defs><style>.cls-1{fill:#432;stroke:#432;stroke-miterlimit:10;stroke-width:0.56px;}</style></defs><path class="cls-1" d="M18.7,26.68c-.38,0-.8,0-1.26-.05a21.81,21.81,0,0,1-4.39-.84,33.46,33.46,0,0,1-5.94-2.42l-.08,0v-.1c0-.06.77-5,.8-6.31a3.57,3.57,0,0,1-2.95.73,3.18,3.18,0,0,1-2.42-1.16c-.7-.92-.87-2.36-.51-4.29A7.62,7.62,0,0,1,3.79,8.65a6.7,6.7,0,0,1,3.07-2,5.78,5.78,0,0,1,3.37,0,4.25,4.25,0,0,1,2,1.47L12.33,8l.11-.11.11-.11a6.07,6.07,0,0,1,4.64-1.89h.08a6.17,6.17,0,0,1,2.59.65,3.72,3.72,0,0,1,2,2.23,7.58,7.58,0,0,1,3,.12,6.21,6.21,0,0,1,2.61,1.35,7.45,7.45,0,0,1,2.1,3.27,4.73,4.73,0,0,1-.32,4.53,5.44,5.44,0,0,1-3,1.84,9.77,9.77,0,0,1-2.64.35c-.24.76-1.73,5.41-2.46,6.14l0,0h0A9.08,9.08,0,0,1,18.7,26.68ZM7.33,23.17a27.14,27.14,0,0,0,10.11,3.18A11.3,11.3,0,0,0,21,26.17c.59-.66,1.82-4.27,2.4-6.11l0-.1h.1a9.35,9.35,0,0,0,2.67-.34A5.09,5.09,0,0,0,29,17.89a4.43,4.43,0,0,0,.29-4.27,7.32,7.32,0,0,0-2-3.16,6.07,6.07,0,0,0-2.5-1.28,7.24,7.24,0,0,0-3-.1l-.13,0,0-.13a3.43,3.43,0,0,0-1.88-2.17,6.06,6.06,0,0,0-2.48-.63h-.07A5.82,5.82,0,0,0,12.75,8l-.12.11-.1.1c-.08.09-.16.18-.27.17a.22.22,0,0,1-.18-.11,3.87,3.87,0,0,0-1.94-1.39,5.53,5.53,0,0,0-3.2,0A6.55,6.55,0,0,0,4,8.84a7.18,7.18,0,0,0-1.76,3.41c-.35,1.85-.2,3.22.45,4.07a3,3,0,0,0,2.22,1.06c2,.15,2.62-.54,2.84-.76s.14-.16.24-.12a.2.2,0,0,1,.12.21C8.18,17.56,7.45,22.39,7.33,23.17Z"/><path class="cls-1" d="M11.2,15.9l-.92-.51a3.94,3.94,0,0,1-1.06-.77l.21-.18a3.61,3.61,0,0,0,1,.71l.92.51Z"/><path class="cls-1" d="M13.14,15.09q-.2-1-.42-2l.27-.06c.15.66.29,1.33.42,2Z"/><rect class="cls-1" x="15.06" y="13.59" width="2.62" height="0.28" transform="translate(0.63 28.18) rotate(-82.55)"/><rect class="cls-1" x="18.55" y="14.92" width="2.75" height="0.28" transform="translate(-4.84 18.29) rotate(-44.53)"/><path class="cls-1" d="M21.32,17.53l-.05-.27a6.6,6.6,0,0,0,2.9-1l.17.22A6.78,6.78,0,0,1,21.32,17.53Z"/><path class="cls-1" d="M20.06,18.75A9.08,9.08,0,0,0,16,17.21a18.51,18.51,0,0,0-4.35,0l0-.27a18.55,18.55,0,0,1,4.42,0,9.34,9.34,0,0,1,4.18,1.59Z"/><path class="cls-1" d="M8.83,21.73l0-.27a12.73,12.73,0,0,1,2-.09v.27A12.09,12.09,0,0,0,8.83,21.73Z"/><path class="cls-1" d="M14.17,21.94a8.2,8.2,0,0,0-1.85-.21v-.28a9.32,9.32,0,0,1,1.91.22Z"/><path class="cls-1" d="M17.89,22.82a13.18,13.18,0,0,0-2-.56l.05-.27a13.38,13.38,0,0,1,2.06.57Z"/><path class="cls-1" d="M20.8,24.12a5.34,5.34,0,0,0-1.46-.71l.08-.26a5.21,5.21,0,0,1,1.54.74Z"/><path class="cls-1" d="M21,26.4a16,16,0,0,0-4.58-2.21A21.77,21.77,0,0,0,12,23.32a22,22,0,0,0-4.66,0l0-.28A23.37,23.37,0,0,1,12,23a22.22,22.22,0,0,1,4.48.88,16.09,16.09,0,0,1,4.65,2.26Z"/><path class="cls-1" d="M12.14,8.79l-.25-.11a2.88,2.88,0,0,1,.54-.76l.2.2A2.83,2.83,0,0,0,12.14,8.79Z"/><path class="cls-1" d="M20.94,9.72l-.23-.16a2.15,2.15,0,0,1,1.23-.78l0,.27A1.85,1.85,0,0,0,20.94,9.72Z"/></svg>